<svg width="220" height="48" viewBox="0 0 220 48" fill="none" xmlns="http://www.w3.org/2000/svg" role="img" aria-label="Săn Deal">
  <defs>
    <linearGradient id="sd-grad" x1="0" y1="0" x2="1" y2="1">
      <stop offset="0" stop-color="#FF7A59"/>
      <stop offset="1" stop-color="#FF3D77"/>
    </linearGradient>
  </defs>
  <!-- Icon: kính lúp lồng thẻ giá -->
  <g transform="translate(4,4)">
    <circle cx="18" cy="18" r="15" fill="url(#sd-grad)"/>
    <path d="M28 28 L38 38" stroke="url(#sd-grad)" stroke-width="5" stroke-linecap="round"/>
    <!-- thẻ giá -->
    <g transform="translate(9,9)" fill="#fff">
      <path d="M2 2 h9 a2 2 0 0 1 1.4 0.6 l5 5 a2 2 0 0 1 0 2.8 l-6 6 a2 2 0 0 1 -2.8 0 l-5 -5 A2 2 0 0 1 2 10 V3 a1 1 0 0 1 1 -1 z"/>
      <circle cx="6" cy="6" r="1.6" fill="url(#sd-grad)"/>
    </g>
  </g>
  <!-- Wordmark -->
  <text x="52" y="31" font-family="'Segoe UI', system-ui, -apple-system, sans-serif" font-size="24" font-weight="800" letter-spacing="-0.5">
    <tspan fill="#1F2430">Săn</tspan><tspan fill="url(#sd-grad)"> Deal</tspan>
  </text>
</svg>
